<?xml version="1.0" encoding="UTF-8"?>
<svg
  xmlns="http://www.w3.org/2000/svg"
  xmlns:inkscape="http://www.inkscape.org/namespaces/inkscape"
  xmlns:sodipodi="http://sodipodi.sourceforge.net/DTD/sodipodi-0.0.dtd"
  id="parentDoc"
  width="297mm"
  height="430mm"
  viewBox="0 0 297 430"
  data-multipage="true"
  version="1.1">
  <sodipodi:namedview id="namedview">
    <inkscape:page id="page1" x="0" y="0" width="297" height="210" inkscape:label="main"/>
    <inkscape:page id="page2" x="0" y="220" width="297" height="210" inkscape:label="-main"/>
  </sodipodi:namedview>
  <defs>
    <filter id="page-shadow" x="-5%" y="-5%" width="110%" height="110%">
      <feDropShadow dx="0" dy="0.5" stdDeviation="1.5" flood-color="rgba(0,0,0,0.28)"/>
    </filter>
  </defs>
  <g id="layer1"
     inkscape:label="main"
     inkscape:groupmode="layer">
    <rect x="0" y="0" width="297" height="210" fill="white" stroke="none" filter="url(#page-shadow)"/>
    <g transform="translate(10,10)">
      <text x="0" y="0" font-family="'Outfit', sans-serif" font-size="6.3" font-weight="normal" font-style="normal" fill="#000000" text-anchor="start" dominant-baseline="text-before-edge" alignment-baseline="text-top">Main page timber project</text>
    </g>
  </g>
  <g id="layer1"
     inkscape:label="-main"
     inkscape:groupmode="layer" transform="translate(0,220)">
    <rect x="0" y="0" width="297" height="210" fill="white" stroke="none" filter="url(#page-shadow)"/>
  <defs>
    <clipPath id="clip1"><rect x="0" y="0" width="27.9798" height="2.7143"/></clipPath>
    <clipPath id="clip2"><rect x="0" y="0" width="55.9596" height="0.3192"/></clipPath>
    <clipPath id="clip3"><rect x="0" y="0" width="55.9596" height="2.1714"/></clipPath>
    <clipPath id="clip4"><rect x="0" y="0" width="55.9596" height="3.619"/></clipPath>
    <clipPath id="clip5"><rect x="0" y="0" width="55.9596" height="0.3192"/></clipPath>
    <clipPath id="clip6"><rect x="0" y="0" width="55.9596" height="2.1714"/></clipPath>
    <clipPath id="clip7"><rect x="0" y="0" width="55.9596" height="3.619"/></clipPath>
    <clipPath id="clip8"><rect x="0" y="0" width="55.9596" height="0.3192"/></clipPath>
    <clipPath id="clip9"><rect x="0" y="0" width="55.9596" height="2.1714"/></clipPath>
    <clipPath id="clip10"><rect x="0" y="0" width="55.9596" height="5.0667"/></clipPath>
    <clipPath id="clip11"><rect x="0" y="0" width="55.9596" height="2.1714"/></clipPath>
    <clipPath id="clip12"><rect x="0" y="0" width="55.9596" height="2.8952"/></clipPath>
    <clipPath id="clip13"><rect x="0" y="0" width="55.9596" height="2.1714"/></clipPath>
    <clipPath id="clip14"><rect x="0" y="0" width="55.9596" height="2.8952"/></clipPath>
    <clipPath id="clip15"><rect x="0" y="0" width="55.9596" height="0.6384"/></clipPath>
    <clipPath id="clip16"><rect x="0" y="0" width="55.9596" height="10.4229"/></clipPath>
    <clipPath id="clip17"><rect x="0" y="0" width="110.8" height="76"/></clipPath>
    <clipPath id="clip18"><rect x="0" y="0" width="110.8" height="53.2"/></clipPath>
    <clipPath id="clip19"><rect x="0" y="0" width="96.95" height="60.8"/></clipPath>
    <clipPath id="clip20"><rect x="0" y="0" width="166.2" height="104.5"/></clipPath>
  </defs>
    <g transform="translate(231.0404,191.8571)">
      <g clip-path="url(#clip1)">
        <text x="0" y="0" font-family="'Outfit', sans-serif" font-size="1.8" font-weight="normal" font-style="normal" fill="#000000" text-anchor="start" dominant-baseline="text-before-edge" alignment-baseline="text-top">v0 at 25-8-2026, 14:34:33</text>
      </g>
    </g>
    <g transform="translate(231.0404,190.0476)">
      <g clip-path="url(#clip2)">
        <line x1="0" y1="0.1596" x2="55.9596" y2="0.1596" stroke="black" fill="none" stroke-width="0.3528mm"/>
      </g>
    </g>
    <g transform="translate(231.0404,181.0905)">
      <g clip-path="url(#clip3)">
        <text x="0" y="0" font-family="'Outfit', sans-serif" font-size="1.5" font-weight="normal" font-style="normal" fill="#000000" text-anchor="start" dominant-baseline="text-before-edge" alignment-baseline="text-top">metrics</text>
      </g>
    </g>
    <g transform="translate(231.0404,183.2619)">
      <g clip-path="url(#clip4)">
        <text x="0" y="0" font-family="'Outfit', sans-serif" font-size="2.5" font-weight="normal" font-style="normal" fill="#000000" text-anchor="start" dominant-baseline="text-before-edge" alignment-baseline="text-top">PC:275 EUR Rd:3.08 m2K/W EI:-16 kgCO2eq Mass:43 kg</text>
      </g>
    </g>
    <g transform="translate(231.0404,180.5476)">
      <g clip-path="url(#clip5)">
        <line x1="0" y1="0.1596" x2="55.9596" y2="0.1596" stroke="black" fill="none" stroke-width="0.3528mm"/>
      </g>
    </g>
    <g transform="translate(231.0404,171.5905)">
      <g clip-path="url(#clip6)">
        <text x="0" y="0" font-family="'Outfit', sans-serif" font-size="1.5" font-weight="normal" font-style="normal" fill="#000000" text-anchor="start" dominant-baseline="text-before-edge" alignment-baseline="text-top">params</text>
      </g>
    </g>
    <g transform="translate(231.0404,173.7619)">
      <g clip-path="url(#clip7)">
        <text x="0" y="0" font-family="'Outfit', sans-serif" font-size="2.5" font-weight="normal" font-style="normal" fill="#000000" text-anchor="start" dominant-baseline="text-before-edge" alignment-baseline="text-top">W:3000 H:2500 D:120 WO:no I:hempf DT:no OS:1000 OS:500 OW:600 OH:1000 B:none</text>
      </g>
    </g>
    <g transform="translate(231.0404,171.0476)">
      <g clip-path="url(#clip8)">
        <line x1="0" y1="0.1596" x2="55.9596" y2="0.1596" stroke="black" fill="none" stroke-width="0.3528mm"/>
      </g>
    </g>
    <g transform="translate(231.0404,163.5833)">
      <g clip-path="url(#clip9)">
        <text x="0" y="0" font-family="'Outfit', sans-serif" font-size="1.5" font-weight="normal" font-style="normal" fill="#000000" text-anchor="start" dominant-baseline="text-before-edge" alignment-baseline="text-top">designer</text>
      </g>
    </g>
    <g transform="translate(231.0404,165.0762)">
      <g clip-path="url(#clip10)">
        <text x="0" y="0" font-family="'Outfit', sans-serif" font-size="3.5" font-weight="normal" font-style="normal" fill="#000000" text-anchor="start" dominant-baseline="text-before-edge" alignment-baseline="text-top">traditional</text>
      </g>
    </g>
    <g transform="translate(273.0101,163.5833)">
      <g clip-path="url(#clip11)">
        <text x="0" y="0" font-family="'Outfit', sans-serif" font-size="1.5" font-weight="normal" font-style="normal" fill="#000000" text-anchor="start" dominant-baseline="text-before-edge" alignment-baseline="text-top">design license</text>
      </g>
    </g>
    <g transform="translate(273.0101,167.2476)">
      <g clip-path="url(#clip12)">
        <text x="0" y="0" font-family="'Outfit', sans-serif" font-size="2" font-weight="normal" font-style="normal" fill="#000000" text-anchor="start" dominant-baseline="text-before-edge" alignment-baseline="text-top">public</text>
      </g>
    </g>
    <g transform="translate(259.0202,163.5833)">
      <g clip-path="url(#clip13)">
        <text x="0" y="0" font-family="'Outfit', sans-serif" font-size="1.5" font-weight="normal" font-style="normal" fill="#000000" text-anchor="start" dominant-baseline="text-before-edge" alignment-baseline="text-top">manual license</text>
      </g>
    </g>
    <g transform="translate(259.0202,167.2476)">
      <g clip-path="url(#clip14)">
        <text x="0" y="0" font-family="'Outfit', sans-serif" font-size="2" font-weight="normal" font-style="normal" fill="#000000" text-anchor="start" dominant-baseline="text-before-edge" alignment-baseline="text-top">CC-BY-NC</text>
      </g>
    </g>
    <g transform="translate(231.0404,161.6808)">
      <g clip-path="url(#clip15)">
        <line x1="0" y1="0.3192" x2="55.9596" y2="0.3192" stroke="black" fill="none" stroke-width="0.7056mm"/>
      </g>
    </g>
    <g transform="translate(231.0404,151.5771)">
      <g clip-path="url(#clip16)">
        <text x="0" y="0" font-family="'Outfit', sans-serif" font-size="7.2" font-weight="bold" font-style="normal" fill="#000000" text-anchor="start" dominant-baseline="text-before-edge" alignment-baseline="text-top">Framed wall</text>
      </g>
    </g>
    <g transform="translate(10,10)">
      <text x="0" y="0" font-family="'Outfit', sans-serif" font-size="9" font-weight="normal" font-style="normal" fill="#000000" text-anchor="start" dominant-baseline="text-before-edge" alignment-baseline="text-top">Framed Wall</text>
    </g>
    <g transform="translate(10,23.3)">
      <text x="0" y="0" font-family="'Outfit', sans-serif" font-size="4.5" font-weight="normal" font-style="normal" fill="#000000" text-anchor="start" dominant-baseline="text-before-edge" alignment-baseline="text-top">3000x2500x120 - 38x120</text>
    </g>
    <g transform="translate(46.01,17.6)">
      <g clip-path="url(#clip17)">
        <svg x="0" y="0" width="110.8" height="76" viewBox="4897 -1657 2206 3315" preserveAspectRatio="xMidYMid meet"><style>.ay-main-iso .line{fill:none;stroke:black;stroke-width:10.9045;stroke-linecap:round;stroke-linejoin:round}.ay-main-iso .hidden{stroke:#888;stroke-dasharray:130.854 87.236}.ay-main-iso .fill{fill:#fff;stroke:none}</style><g class="ay-main-iso"><path d="M6289.206674 871.6101 L6289.206674 -1107.577612" class="line silhouette" /><path d="M4896.913421 1608.498264 L4896.913421 -432.743188" class="line silhouette" /><path d="M6262.336616 -1092.064177 L6262.336616 887.123535" class="line visible" /><path d="M4896.913421 -432.743188 L4981.766235 -383.753393" class="line visible" /><path d="M7103.086579 432.743188 L4981.766235 1657.488059" class="line silhouette" /><path d="M5426.5364 1369.673015 L5426.5364 -609.514698" class="line silhouette" /><path d="M5008.636293 1610.947754 L5008.636293 -368.239958" class="line silhouette" /><path d="M5831.001479 -843.03272 L5831.001479 1136.154992" class="line visible" /><path d="M6693.671752 -1341.095634 L6693.671752 638.092078" class="line visible" /><path d="M6720.54181 622.578643 L6720.54181 -1356.609069" class="line silhouette" /><path d="M7076.216521 -1561.957959 L7076.216521 417.229753" class="line visible" /><path d="M7018.233765 -1657.488059 L4896.913421 -432.743188" class="line silhouette" /><path d="M5399.666343 -594.001263 L5399.666343 1385.18645" class="line visible" /><path d="M4981.766235 1626.461189 L4896.913421 1577.471394" class="line silhouette" /><path d="M4896.913421 -401.716318 L4981.766235 -352.726523" class="line visible" /><path d="M4981.766235 -383.753393 L7103.086579 -1608.498264" class="line visible" /><path d="M4981.766235 1657.488059 L4896.913421 1608.498264" class="line silhouette" /><path d="M4981.766235 -383.753393 L4981.766235 1657.488059" class="line visible" /><path d="M5857.871537 1120.641557 L5857.871537 -858.546155" class="line silhouette" /><path d="M7103.086579 -1608.498264 L7018.233765 -1657.488059" class="line silhouette" /><path d="M7103.086579 432.743188 L7103.086579 -1608.498264" class="line silhouette" /><path d="M4896.913421 1577.471394 L4981.766235 1626.461189" class="line silhouette" /><path d="M4981.766235 1626.461189 L5008.636293 1610.947754" class="line silhouette" /><path d="M5008.636293 1610.947754 L5008.227922 1610.711981" class="line silhouette" /><path d="M4897.321792 1577.235621 L4896.913421 1577.471394" class="line silhouette" /><path d="M4896.913421 -401.716318 L4981.766235 -352.726523" class="line silhouette" /><path d="M4897.321792 -401.952091 L4896.913421 -401.716318" class="line silhouette" /><path d="M5008.636293 -368.239958 L5008.227922 -368.475731" class="line silhouette" /><path d="M4981.766235 -352.726523 L5008.636293 -368.239958" class="line silhouette" /><path d="M5008.636293 -368.239958 L5008.636293 1610.947754" class="line silhouette" /><path d="M5008.227922 -368.475731 L5008.636293 -368.239958" class="line silhouette" /><path d="M5008.636293 1610.947754 L5008.227922 1610.711981" class="line silhouette" /><path d="M5426.5364 1369.673015 L5426.12803 1369.437242" class="line silhouette" /><path d="M5399.257972 1384.950677 L5399.666343 1385.18645" class="line silhouette" /><path d="M5399.666343 1385.18645 L5426.5364 1369.673015" class="line silhouette" /><path d="M5426.5364 -609.514698 L5426.12803 -609.750471" class="line silhouette" /><path d="M5399.257972 -594.237036 L5399.666343 -594.001263" class="line silhouette" /><path d="M5399.666343 -594.001263 L5426.5364 -609.514698" class="line silhouette" /><path d="M5399.257972 -594.237036 L5399.666343 -594.001263" class="line silhouette" /><path d="M5399.666343 1385.18645 L5399.257972 1384.950677" class="line silhouette" /><path d="M5399.666343 -594.001263 L5399.666343 1385.18645" class="line silhouette" /><path d="M5426.5364 -609.514698 L5426.5364 1369.673015" class="line silhouette" /><path d="M5426.12803 -609.750471 L5426.5364 -609.514698" class="line silhouette" /><path d="M5426.5364 1369.673015 L5426.12803 1369.437242" class="line silhouette" /><path d="M5831.001479 1136.154992 L5857.871537 1120.641557" class="line silhouette" /><path d="M5830.593109 1135.919219 L5831.001479 1136.154992" class="line silhouette" /><path d="M5857.871537 1120.641557 L5857.463166 1120.405784" class="line silhouette" /><path d="M5857.871537 -858.546155 L5857.463166 -858.781928" class="line silhouette" /><path d="M5830.593109 -843.268493 L5831.001479 -843.03272" class="line silhouette" /><path d="M5831.001479 -843.03272 L5857.871537 -858.546155" class="line silhouette" /><path d="M5831.001479 1136.154992 L5830.593109 1135.919219" class="line silhouette" /><path d="M5831.001479 -843.03272 L5831.001479 1136.154992" class="line silhouette" /><path d="M5830.593109 -843.268493 L5831.001479 -843.03272" class="line silhouette" /><path d="M5857.871537 1120.641557 L5857.463166 1120.405784" class="line silhouette" /><path d="M5857.871537 -858.546155 L5857.871537 1120.641557" class="line silhouette" /><path d="M5857.463166 -858.781928 L5857.871537 -858.546155" class="line silhouette" /><path d="M6262.336616 887.123535 L6289.206674 871.6101" class="line silhouette" /><path d="M6261.928245 886.887762 L6262.336616 887.123535" class="line silhouette" /><path d="M6289.206674 871.6101 L6288.798303 871.374327" class="line silhouette" /><path d="M6289.206674 -1107.577612 L6288.798303 -1107.813385" class="line silhouette" /><path d="M6261.928245 -1092.29995 L6262.336616 -1092.064177" class="line silhouette" /><path d="M6262.336616 -1092.064177 L6289.206674 -1107.577612" class="line silhouette" /><path d="M6262.336616 -1092.064177 L6262.336616 887.123535" class="line silhouette" /><path d="M6261.928245 -1092.29995 L6262.336616 -1092.064177" class="line silhouette" /><path d="M6262.336616 887.123535 L6261.928245 886.887762" class="line silhouette" /><path d="M6289.206674 -1107.577612 L6289.206674 871.6101" class="line silhouette" /><path d="M6289.206674 871.6101 L6288.798303 871.374327" class="line silhouette" /><path d="M6288.798303 -1107.813385 L6289.206674 -1107.577612" class="line silhouette" /><path d="M6720.54181 622.578643 L6720.133439 622.34287" class="line silhouette" /><path d="M6693.263382 637.856305 L6693.671752 638.092078" class="line silhouette" /><path d="M6693.671752 638.092078 L6720.54181 622.578643" class="line silhouette" /><path d="M6720.54181 -1356.609069 L6720.133439 -1356.844842" class="line silhouette" /><path d="M6693.263382 -1341.331407 L6693.671752 -1341.095634" class="line silhouette" /><path d="M6693.671752 -1341.095634 L6720.54181 -1356.609069" class="line silhouette" /><path d="M6693.671752 -1341.095634 L6693.671752 638.092078" class="line silhouette" /><path d="M6693.263382 -1341.331407 L6693.671752 -1341.095634" class="line silhouette" /><path d="M6693.671752 638.092078 L6693.263382 637.856305" class="line silhouette" /><path d="M6720.54181 622.578643 L6720.133439 622.34287" class="line silhouette" /><path d="M6720.133439 -1356.844842 L6720.54181 -1356.609069" class="line silhouette" /><path d="M6720.54181 -1356.609069 L6720.54181 622.578643" class="line silhouette" /><path d="M7076.216521 417.229753 L7103.086579 401.716318" class="line silhouette" /><path d="M7103.086579 401.716318 L7102.678208 401.480545" class="line silhouette" /><path d="M7075.80815 416.99398 L7076.216521 417.229753" class="line silhouette" /><path d="M7076.216521 -1561.957959 L7103.086579 -1577.471394" class="line silhouette" /><path d="M7075.80815 -1562.193732 L7076.216521 -1561.957959" class="line silhouette" /><path d="M7103.086579 -1577.471394 L7102.678208 -1577.707167" class="line silhouette" /><path d="M7076.216521 -1561.957959 L7076.216521 417.229753" class="line silhouette" /><path d="M7076.216521 417.229753 L7075.80815 416.99398" class="line silhouette" /><path d="M7075.80815 -1562.193732 L7076.216521 -1561.957959" class="line silhouette" /><path d="M5399.666343 1385.18645 L5399.257972 1384.950677" class="line silhouette" /><path d="M5008.636293 1610.947754 L5399.666343 1385.18645" class="line silhouette" /><path d="M5008.227922 1610.711981 L5008.636293 1610.947754" class="line silhouette" /><path d="M5831.001479 1136.154992 L5830.593109 1135.919219" class="line silhouette" /><path d="M5426.12803 1369.437242 L5426.5364 1369.673015" class="line silhouette" /><path d="M5426.5364 1369.673015 L5831.001479 1136.154992" class="line silhouette" /><path d="M5857.463166 1120.405784 L5857.871537 1120.641557" class="line silhouette" /><path d="M6262.336616 887.123535 L6261.928245 886.887762" class="line silhouette" /><path d="M5857.871537 1120.641557 L6262.336616 887.123535" class="line silhouette" /><path d="M6693.671752 638.092078 L6693.263382 637.856305" class="line silhouette" /><path d="M6288.798303 871.374327 L6289.206674 871.6101" class="line silhouette" /><path d="M6289.206674 871.6101 L6693.671752 638.092078" class="line silhouette" /><path d="M6720.54181 622.578643 L7076.216521 417.229753" class="line silhouette" /><path d="M7076.216521 417.229753 L7075.80815 416.99398" class="line silhouette" /><path d="M6720.133439 622.34287 L6720.54181 622.578643" class="line silhouette" /><path d="M5008.636293 -368.239958 L5399.666343 -594.001263" class="line silhouette" /><path d="M5399.666343 -594.001263 L5399.257972 -594.237036" class="line silhouette" /><path d="M5008.227922 -368.475731 L5008.636293 -368.239958" class="line silhouette" /><path d="M5831.001479 -843.03272 L5830.593109 -843.268493" class="line silhouette" /><path d="M5426.5364 -609.514698 L5831.001479 -843.03272" class="line silhouette" /><path d="M5426.12803 -609.750471 L5426.5364 -609.514698" class="line silhouette" /><path d="M6262.336616 -1092.064177 L6261.928245 -1092.29995" class="line silhouette" /><path d="M5857.871537 -858.546155 L6262.336616 -1092.064177" class="line silhouette" /><path d="M5857.463166 -858.781928 L5857.871537 -858.546155" class="line silhouette" /><path d="M6288.798303 -1107.813385 L6289.206674 -1107.577612" class="line silhouette" /><path d="M6693.671752 -1341.095634 L6693.263382 -1341.331407" class="line silhouette" /><path d="M6289.206674 -1107.577612 L6693.671752 -1341.095634" class="line silhouette" /><path d="M6720.133439 -1356.844842 L6720.54181 -1356.609069" class="line silhouette" /><path d="M7076.216521 -1561.957959 L7075.80815 -1562.193732" class="line silhouette" /><path d="M6720.54181 -1356.609069 L7076.216521 -1561.957959" class="line silhouette" /><path d="M4939.339828 1632.993162 L4939.339828 -408.24829" class="line visible" stroke="#0000ff" stroke-dasharray="2 2"/></g></svg>
      </g>
    </g>
    <g transform="translate(10,137.3)">
      <text x="0" y="0" font-family="'Outfit', sans-serif" font-size="5.4" font-weight="normal" font-style="normal" fill="#000000" text-anchor="start" dominant-baseline="text-before-edge" alignment-baseline="text-top">Material list</text>
    </g>
    <g transform="translate(10,146.8)">
      <g clip-path="url(#clip18)">
        <g><rect x="0" y="0" width="15.8286" height="5.3867" fill="#eeeeee" stroke="black" stroke-width="0.1"/><text x="1" y="2.6933" font-family="'Outfit', sans-serif" font-size="2.1167" fill="#000000" dominant-baseline="middle" font-weight="bold">material</text><rect x="15.8286" y="0" width="15.8286" height="5.3867" fill="#eeeeee" stroke="black" stroke-width="0.1"/><text x="16.8286" y="2.6933" font-family="'Outfit', sans-serif" font-size="2.1167" fill="#000000" dominant-baseline="middle" font-weight="bold">dim in cm</text><rect x="31.6571" y="0" width="15.8286" height="5.3867" fill="#eeeeee" stroke="black" stroke-width="0.1"/><text x="32.6571" y="2.6933" font-family="'Outfit', sans-serif" font-size="2.1167" fill="#000000" dominant-baseline="middle" font-weight="bold">quantity</text><rect x="47.4857" y="0" width="15.8286" height="5.3867" fill="#eeeeee" stroke="black" stroke-width="0.1"/><text x="48.4857" y="2.6933" font-family="'Outfit', sans-serif" font-size="2.1167" fill="#000000" dominant-baseline="middle" font-weight="bold">amount</text><rect x="63.3143" y="0" width="15.8286" height="5.3867" fill="#eeeeee" stroke="black" stroke-width="0.1"/><text x="64.3143" y="2.6933" font-family="'Outfit', sans-serif" font-size="2.1167" fill="#000000" dominant-baseline="middle" font-weight="bold">unit</text><rect x="79.1429" y="0" width="15.8286" height="5.3867" fill="#eeeeee" stroke="black" stroke-width="0.1"/><text x="80.1429" y="2.6933" font-family="'Outfit', sans-serif" font-size="2.1167" fill="#000000" dominant-baseline="middle" font-weight="bold">€ per unit</text><rect x="94.9714" y="0" width="15.8286" height="5.3867" fill="#eeeeee" stroke="black" stroke-width="0.1"/><text x="95.9714" y="2.6933" font-family="'Outfit', sans-serif" font-size="2.1167" fill="#000000" dominant-baseline="middle" font-weight="bold">cost € est</text><rect x="0" y="5.3867" width="15.8286" height="5.3867" fill="none" stroke="black" stroke-width="0.1"/><text x="1" y="8.08" font-family="'Outfit', sans-serif" font-size="2.1167" fill="#000000" dominant-baseline="middle">wood SLS</text><rect x="15.8286" y="5.3867" width="15.8286" height="5.3867" fill="none" stroke="black" stroke-width="0.1"/><text x="16.8286" y="8.08" font-family="'Outfit', sans-serif" font-size="2.1167" fill="#000000" dominant-baseline="middle">38x120</text><rect x="31.6571" y="5.3867" width="15.8286" height="5.3867" fill="none" stroke="black" stroke-width="0.1"/><text x="32.6571" y="8.08" font-family="'Outfit', sans-serif" font-size="2.1167" fill="#000000" dominant-baseline="middle">length</text><rect x="47.4857" y="5.3867" width="15.8286" height="5.3867" fill="none" stroke="black" stroke-width="0.1"/><text x="48.4857" y="8.08" font-family="'Outfit', sans-serif" font-size="2.1167" fill="#000000" dominant-baseline="middle">0.3</text><rect x="63.3143" y="5.3867" width="15.8286" height="5.3867" fill="none" stroke="black" stroke-width="0.1"/><text x="64.3143" y="8.08" font-family="'Outfit', sans-serif" font-size="2.1167" fill="#000000" dominant-baseline="middle">m</text><rect x="79.1429" y="5.3867" width="15.8286" height="5.3867" fill="none" stroke="black" stroke-width="0.1"/><text x="80.1429" y="8.08" font-family="'Outfit', sans-serif" font-size="2.1167" fill="#000000" dominant-baseline="middle">1.71</text><rect x="94.9714" y="5.3867" width="15.8286" height="5.3867" fill="none" stroke="black" stroke-width="0.1"/><text x="95.9714" y="8.08" font-family="'Outfit', sans-serif" font-size="2.1167" fill="#000000" dominant-baseline="middle">35.13</text><rect x="0" y="10.7733" width="15.8286" height="5.3867" fill="none" stroke="black" stroke-width="0.1"/><text x="1" y="13.4667" font-family="'Outfit', sans-serif" font-size="2.1167" fill="#000000" dominant-baseline="middle">insulation</text><rect x="15.8286" y="10.7733" width="15.8286" height="5.3867" fill="none" stroke="black" stroke-width="0.1"/><text x="16.8286" y="13.4667" font-family="'Outfit', sans-serif" font-size="2.1167" fill="#000000" dominant-baseline="middle">hempflax</text><rect x="31.6571" y="10.7733" width="15.8286" height="5.3867" fill="none" stroke="black" stroke-width="0.1"/><text x="32.6571" y="13.4667" font-family="'Outfit', sans-serif" font-size="2.1167" fill="#000000" dominant-baseline="middle">volume</text><rect x="47.4857" y="10.7733" width="15.8286" height="5.3867" fill="none" stroke="black" stroke-width="0.1"/><text x="48.4857" y="13.4667" font-family="'Outfit', sans-serif" font-size="2.1167" fill="#000000" dominant-baseline="middle">0.81</text><rect x="63.3143" y="10.7733" width="15.8286" height="5.3867" fill="none" stroke="black" stroke-width="0.1"/><text x="64.3143" y="13.4667" font-family="'Outfit', sans-serif" font-size="2.1167" fill="#000000" dominant-baseline="middle">m3</text><rect x="79.1429" y="10.7733" width="15.8286" height="5.3867" fill="none" stroke="black" stroke-width="0.1"/><text x="80.1429" y="13.4667" font-family="'Outfit', sans-serif" font-size="2.1167" fill="#000000" dominant-baseline="middle">120</text><rect x="94.9714" y="10.7733" width="15.8286" height="5.3867" fill="none" stroke="black" stroke-width="0.1"/><text x="95.9714" y="13.4667" font-family="'Outfit', sans-serif" font-size="2.1167" fill="#000000" dominant-baseline="middle">96.76</text><rect x="0" y="16.16" width="15.8286" height="5.3867" fill="none" stroke="black" stroke-width="0.1"/><text x="1" y="18.8533" font-family="'Outfit', sans-serif" font-size="2.1167" fill="#000000" dominant-baseline="middle">screws studs</text><rect x="15.8286" y="16.16" width="15.8286" height="5.3867" fill="none" stroke="black" stroke-width="0.1"/><text x="16.8286" y="18.8533" font-family="'Outfit', sans-serif" font-size="2.1167" fill="#000000" dominant-baseline="middle">5x90</text><rect x="31.6571" y="16.16" width="15.8286" height="5.3867" fill="none" stroke="black" stroke-width="0.1"/><text x="32.6571" y="18.8533" font-family="'Outfit', sans-serif" font-size="2.1167" fill="#000000" dominant-baseline="middle">pcs</text><rect x="47.4857" y="16.16" width="15.8286" height="5.3867" fill="none" stroke="black" stroke-width="0.1"/><text x="48.4857" y="18.8533" font-family="'Outfit', sans-serif" font-size="2.1167" fill="#000000" dominant-baseline="middle">24</text><rect x="63.3143" y="16.16" width="15.8286" height="5.3867" fill="none" stroke="black" stroke-width="0.1"/><text x="64.3143" y="18.8533" font-family="'Outfit', sans-serif" font-size="2.1167" fill="#000000" dominant-baseline="middle">pcs</text><rect x="79.1429" y="16.16" width="15.8286" height="5.3867" fill="none" stroke="black" stroke-width="0.1"/><text x="80.1429" y="18.8533" font-family="'Outfit', sans-serif" font-size="2.1167" fill="#000000" dominant-baseline="middle">0.08</text><rect x="94.9714" y="16.16" width="15.8286" height="5.3867" fill="none" stroke="black" stroke-width="0.1"/><text x="95.9714" y="18.8533" font-family="'Outfit', sans-serif" font-size="2.1167" fill="#000000" dominant-baseline="middle">1.92</text><rect x="0" y="21.5467" width="15.8286" height="5.3867" fill="none" stroke="black" stroke-width="0.1"/><text x="1" y="24.24" font-family="'Outfit', sans-serif" font-size="2.1167" fill="#000000" dominant-baseline="middle">screws studs</text><rect x="15.8286" y="21.5467" width="15.8286" height="5.3867" fill="none" stroke="black" stroke-width="0.1"/><text x="16.8286" y="24.24" font-family="'Outfit', sans-serif" font-size="2.1167" fill="#000000" dominant-baseline="middle">6x140</text><rect x="31.6571" y="21.5467" width="15.8286" height="5.3867" fill="none" stroke="black" stroke-width="0.1"/><text x="32.6571" y="24.24" font-family="'Outfit', sans-serif" font-size="2.1167" fill="#000000" dominant-baseline="middle">pcs</text><rect x="47.4857" y="21.5467" width="15.8286" height="5.3867" fill="none" stroke="black" stroke-width="0.1"/><text x="48.4857" y="24.24" font-family="'Outfit', sans-serif" font-size="2.1167" fill="#000000" dominant-baseline="middle">12</text><rect x="63.3143" y="21.5467" width="15.8286" height="5.3867" fill="none" stroke="black" stroke-width="0.1"/><text x="64.3143" y="24.24" font-family="'Outfit', sans-serif" font-size="2.1167" fill="#000000" dominant-baseline="middle">pcs</text><rect x="79.1429" y="21.5467" width="15.8286" height="5.3867" fill="none" stroke="black" stroke-width="0.1"/><text x="80.1429" y="24.24" font-family="'Outfit', sans-serif" font-size="2.1167" fill="#000000" dominant-baseline="middle">0.11</text><rect x="94.9714" y="21.5467" width="15.8286" height="5.3867" fill="none" stroke="black" stroke-width="0.1"/><text x="95.9714" y="24.24" font-family="'Outfit', sans-serif" font-size="2.1167" fill="#000000" dominant-baseline="middle">1.32</text><rect x="0" y="26.9333" width="15.8286" height="5.3867" fill="none" stroke="black" stroke-width="0.1"/><text x="1" y="29.6267" font-family="'Outfit', sans-serif" font-size="2.1167" fill="#000000" dominant-baseline="middle">screws doubles</text><rect x="15.8286" y="26.9333" width="15.8286" height="5.3867" fill="none" stroke="black" stroke-width="0.1"/><text x="16.8286" y="29.6267" font-family="'Outfit', sans-serif" font-size="2.1167" fill="#000000" dominant-baseline="middle">5x70</text><rect x="31.6571" y="26.9333" width="15.8286" height="5.3867" fill="none" stroke="black" stroke-width="0.1"/><text x="32.6571" y="29.6267" font-family="'Outfit', sans-serif" font-size="2.1167" fill="#000000" dominant-baseline="middle">pcs</text><rect x="47.4857" y="26.9333" width="15.8286" height="5.3867" fill="none" stroke="black" stroke-width="0.1"/><text x="48.4857" y="29.6267" font-family="'Outfit', sans-serif" font-size="2.1167" fill="#000000" dominant-baseline="middle">26</text><rect x="63.3143" y="26.9333" width="15.8286" height="5.3867" fill="none" stroke="black" stroke-width="0.1"/><text x="64.3143" y="29.6267" font-family="'Outfit', sans-serif" font-size="2.1167" fill="#000000" dominant-baseline="middle">pcs</text><rect x="79.1429" y="26.9333" width="15.8286" height="5.3867" fill="none" stroke="black" stroke-width="0.1"/><text x="80.1429" y="29.6267" font-family="'Outfit', sans-serif" font-size="2.1167" fill="#000000" dominant-baseline="middle">0.06</text><rect x="94.9714" y="26.9333" width="15.8286" height="5.3867" fill="none" stroke="black" stroke-width="0.1"/><text x="95.9714" y="29.6267" font-family="'Outfit', sans-serif" font-size="2.1167" fill="#000000" dominant-baseline="middle">1.56</text><rect x="0" y="32.32" width="15.8286" height="5.3867" fill="none" stroke="black" stroke-width="0.1"/><text x="1" y="35.0133" font-family="'Outfit', sans-serif" font-size="2.1167" fill="#000000" dominant-baseline="middle"></text><rect x="15.8286" y="32.32" width="15.8286" height="5.3867" fill="none" stroke="black" stroke-width="0.1"/><text x="16.8286" y="35.0133" font-family="'Outfit', sans-serif" font-size="2.1167" fill="#000000" dominant-baseline="middle"></text><rect x="31.6571" y="32.32" width="15.8286" height="5.3867" fill="none" stroke="black" stroke-width="0.1"/><text x="32.6571" y="35.0133" font-family="'Outfit', sans-serif" font-size="2.1167" fill="#000000" dominant-baseline="middle"></text><rect x="47.4857" y="32.32" width="15.8286" height="5.3867" fill="none" stroke="black" stroke-width="0.1"/><text x="48.4857" y="35.0133" font-family="'Outfit', sans-serif" font-size="2.1167" fill="#000000" dominant-baseline="middle"></text><rect x="63.3143" y="32.32" width="15.8286" height="5.3867" fill="none" stroke="black" stroke-width="0.1"/><text x="64.3143" y="35.0133" font-family="'Outfit', sans-serif" font-size="2.1167" fill="#000000" dominant-baseline="middle"></text><rect x="79.1429" y="32.32" width="15.8286" height="5.3867" fill="none" stroke="black" stroke-width="0.1"/><text x="80.1429" y="35.0133" font-family="'Outfit', sans-serif" font-size="2.1167" fill="#000000" dominant-baseline="middle"></text><rect x="94.9714" y="32.32" width="15.8286" height="5.3867" fill="none" stroke="black" stroke-width="0.1"/><text x="95.9714" y="35.0133" font-family="'Outfit', sans-serif" font-size="2.1167" fill="#000000" dominant-baseline="middle">----- +</text><rect x="0" y="37.7067" width="15.8286" height="5.3867" fill="none" stroke="black" stroke-width="0.1"/><text x="1" y="40.4" font-family="'Outfit', sans-serif" font-size="2.1167" fill="#000000" dominant-baseline="middle">TOTAL MATERIAL COST EST</text><rect x="15.8286" y="37.7067" width="15.8286" height="5.3867" fill="none" stroke="black" stroke-width="0.1"/><text x="16.8286" y="40.4" font-family="'Outfit', sans-serif" font-size="2.1167" fill="#000000" dominant-baseline="middle"></text><rect x="31.6571" y="37.7067" width="15.8286" height="5.3867" fill="none" stroke="black" stroke-width="0.1"/><text x="32.6571" y="40.4" font-family="'Outfit', sans-serif" font-size="2.1167" fill="#000000" dominant-baseline="middle"></text><rect x="47.4857" y="37.7067" width="15.8286" height="5.3867" fill="none" stroke="black" stroke-width="0.1"/><text x="48.4857" y="40.4" font-family="'Outfit', sans-serif" font-size="2.1167" fill="#000000" dominant-baseline="middle"></text><rect x="63.3143" y="37.7067" width="15.8286" height="5.3867" fill="none" stroke="black" stroke-width="0.1"/><text x="64.3143" y="40.4" font-family="'Outfit', sans-serif" font-size="2.1167" fill="#000000" dominant-baseline="middle"></text><rect x="79.1429" y="37.7067" width="15.8286" height="5.3867" fill="none" stroke="black" stroke-width="0.1"/><text x="80.1429" y="40.4" font-family="'Outfit', sans-serif" font-size="2.1167" fill="#000000" dominant-baseline="middle"></text><rect x="94.9714" y="37.7067" width="15.8286" height="5.3867" fill="none" stroke="black" stroke-width="0.1"/><text x="95.9714" y="40.4" font-family="'Outfit', sans-serif" font-size="2.1167" fill="#000000" dominant-baseline="middle">€ 136.69</text></g>
      </g>
    </g>
    <g transform="translate(126.34,127.8)">
      <text x="0" y="0" font-family="'Outfit', sans-serif" font-size="5.4" font-weight="normal" font-style="normal" fill="#000000" text-anchor="start" dominant-baseline="text-before-edge" alignment-baseline="text-top">Cut list</text>
    </g>
    <g transform="translate(126.34,139.2)">
      <g clip-path="url(#clip19)">
        <g><rect x="0" y="0" width="16.1583" height="5.3867" fill="#eeeeee" stroke="black" stroke-width="0.1"/><text x="1" y="2.6933" font-family="'Outfit', sans-serif" font-size="2.1167" fill="#000000" dominant-baseline="middle" font-weight="bold">part</text><rect x="16.1583" y="0" width="16.1583" height="5.3867" fill="#eeeeee" stroke="black" stroke-width="0.1"/><text x="17.1583" y="2.6933" font-family="'Outfit', sans-serif" font-size="2.1167" fill="#000000" dominant-baseline="middle" font-weight="bold">subpart</text><rect x="32.3167" y="0" width="16.1583" height="5.3867" fill="#eeeeee" stroke="black" stroke-width="0.1"/><text x="33.3167" y="2.6933" font-family="'Outfit', sans-serif" font-size="2.1167" fill="#000000" dominant-baseline="middle" font-weight="bold">material</text><rect x="48.475" y="0" width="16.1583" height="5.3867" fill="#eeeeee" stroke="black" stroke-width="0.1"/><text x="49.475" y="2.6933" font-family="'Outfit', sans-serif" font-size="2.1167" fill="#000000" dominant-baseline="middle" font-weight="bold">section (mm)</text><rect x="64.6333" y="0" width="16.1583" height="5.3867" fill="#eeeeee" stroke="black" stroke-width="0.1"/><text x="65.6333" y="2.6933" font-family="'Outfit', sans-serif" font-size="2.1167" fill="#000000" dominant-baseline="middle" font-weight="bold">dim (mm)</text><rect x="80.7917" y="0" width="16.1583" height="5.3867" fill="#eeeeee" stroke="black" stroke-width="0.1"/><text x="81.7917" y="2.6933" font-family="'Outfit', sans-serif" font-size="2.1167" fill="#000000" dominant-baseline="middle" font-weight="bold">quantity</text><rect x="0" y="5.3867" width="16.1583" height="5.3867" fill="none" stroke="black" stroke-width="0.1"/><text x="1" y="8.08" font-family="'Outfit', sans-serif" font-size="2.1167" fill="#000000" dominant-baseline="middle">base wall frame</text><rect x="16.1583" y="5.3867" width="16.1583" height="5.3867" fill="none" stroke="black" stroke-width="0.1"/><text x="17.1583" y="8.08" font-family="'Outfit', sans-serif" font-size="2.1167" fill="#000000" dominant-baseline="middle">top &amp; bottom plate</text><rect x="32.3167" y="5.3867" width="16.1583" height="5.3867" fill="none" stroke="black" stroke-width="0.1"/><text x="33.3167" y="8.08" font-family="'Outfit', sans-serif" font-size="2.1167" fill="#000000" dominant-baseline="middle">wood SLS</text><rect x="48.475" y="5.3867" width="16.1583" height="5.3867" fill="none" stroke="black" stroke-width="0.1"/><text x="49.475" y="8.08" font-family="'Outfit', sans-serif" font-size="2.1167" fill="#000000" dominant-baseline="middle">38x120</text><rect x="64.6333" y="5.3867" width="16.1583" height="5.3867" fill="none" stroke="black" stroke-width="0.1"/><text x="65.6333" y="8.08" font-family="'Outfit', sans-serif" font-size="2.1167" fill="#000000" dominant-baseline="middle">3000</text><rect x="80.7917" y="5.3867" width="16.1583" height="5.3867" fill="none" stroke="black" stroke-width="0.1"/><text x="81.7917" y="8.08" font-family="'Outfit', sans-serif" font-size="2.1167" fill="#000000" dominant-baseline="middle">2</text><rect x="0" y="10.7733" width="16.1583" height="5.3867" fill="none" stroke="black" stroke-width="0.1"/><text x="1" y="13.4667" font-family="'Outfit', sans-serif" font-size="2.1167" fill="#000000" dominant-baseline="middle">base wall frame</text><rect x="16.1583" y="10.7733" width="16.1583" height="5.3867" fill="none" stroke="black" stroke-width="0.1"/><text x="17.1583" y="13.4667" font-family="'Outfit', sans-serif" font-size="2.1167" fill="#000000" dominant-baseline="middle">studs + opening kingstuds</text><rect x="32.3167" y="10.7733" width="16.1583" height="5.3867" fill="none" stroke="black" stroke-width="0.1"/><text x="33.3167" y="13.4667" font-family="'Outfit', sans-serif" font-size="2.1167" fill="#000000" dominant-baseline="middle">wood SLS</text><rect x="48.475" y="10.7733" width="16.1583" height="5.3867" fill="none" stroke="black" stroke-width="0.1"/><text x="49.475" y="13.4667" font-family="'Outfit', sans-serif" font-size="2.1167" fill="#000000" dominant-baseline="middle">38x120</text><rect x="64.6333" y="10.7733" width="16.1583" height="5.3867" fill="none" stroke="black" stroke-width="0.1"/><text x="65.6333" y="13.4667" font-family="'Outfit', sans-serif" font-size="2.1167" fill="#000000" dominant-baseline="middle">2424</text><rect x="80.7917" y="10.7733" width="16.1583" height="5.3867" fill="none" stroke="black" stroke-width="0.1"/><text x="81.7917" y="13.4667" font-family="'Outfit', sans-serif" font-size="2.1167" fill="#000000" dominant-baseline="middle">6</text></g>
      </g>
    </g>
    <g transform="translate(120.8,10)">
      <g clip-path="url(#clip20)">
        <svg x="0" y="0" width="166.2" height="104.5" viewBox="0 -2500 3000 2500" preserveAspectRatio="xMidYMid meet"><style>.ay-main-layout .line{fill:none;stroke:black;stroke-width:5.9809;stroke-linecap:round;stroke-linejoin:round}.ay-main-layout .hidden{stroke:#888;stroke-dasharray:71.7708 47.8472}.ay-main-layout .fill{fill:#fff;stroke:none}</style><g class="ay-main-layout"><path d="M1201 -2462 L1201 -38" class="line silhouette" /><path d="M629 -38 L629 -2462" class="line silhouette" /><path d="M591 -2462 L591 -38" class="line silhouette" /><path d="M2421 -2462 L2421 -38" class="line silhouette" /><path d="M38 -38 L38 -2462" class="line silhouette" /><path d="M1849 -38 L1849 -2462" class="line silhouette" /><path d="M1239 -38 L1239 -2462" class="line silhouette" /><path d="M1811 -2462 L1811 -38" class="line silhouette" /><path d="M0 -2500 L3000 -2500" class="line silhouette" /><path d="M2962 -2462 L2962 -38" class="line silhouette" /><path d="M3000 0 L3000 -2500" class="line silhouette" /><path d="M2459 -38 L2459 -2462" class="line silhouette" /><path d="M3000 0 L0 0" class="line silhouette" /><path d="M0 -2500 L0 0" class="line silhouette" /><path d="M0 -38 L38 -38" class="line silhouette" /><path d="M0 -2462 L38 -2462" class="line silhouette" /><path d="M38 -2462 L38 -38" class="line silhouette" /><path d="M591 -38 L629 -38" class="line silhouette" /><path d="M591 -2462 L629 -2462" class="line silhouette" /><path d="M591 -2462 L591 -38" class="line silhouette" /><path d="M629 -2462 L629 -38" class="line silhouette" /><path d="M1201 -38 L1239 -38" class="line silhouette" /><path d="M1201 -2462 L1239 -2462" class="line silhouette" /><path d="M1201 -2462 L1201 -38" class="line silhouette" /><path d="M1239 -2462 L1239 -38" class="line silhouette" /><path d="M1811 -38 L1849 -38" class="line silhouette" /><path d="M1811 -2462 L1849 -2462" class="line silhouette" /><path d="M1811 -2462 L1811 -38" class="line silhouette" /><path d="M1849 -2462 L1849 -38" class="line silhouette" /><path d="M2421 -38 L2459 -38" class="line silhouette" /><path d="M2421 -2462 L2459 -2462" class="line silhouette" /><path d="M2421 -2462 L2421 -38" class="line silhouette" /><path d="M2459 -2462 L2459 -38" class="line silhouette" /><path d="M2962 -38 L3000 -38" class="line silhouette" /><path d="M2962 -2462 L3000 -2462" class="line silhouette" /><path d="M2962 -2462 L2962 -38" class="line silhouette" /><path d="M38 -38 L591 -38" class="line silhouette" /><path d="M629 -38 L1201 -38" class="line silhouette" /><path d="M1239 -38 L1811 -38" class="line silhouette" /><path d="M1849 -38 L2421 -38" class="line silhouette" /><path d="M2459 -38 L2962 -38" class="line silhouette" /><path d="M38 -2462 L591 -2462" class="line silhouette" /><path d="M629 -2462 L1201 -2462" class="line silhouette" /><path d="M1239 -2462 L1811 -2462" class="line silhouette" /><path d="M1849 -2462 L2421 -2462" class="line silhouette" /><path d="M2459 -2462 L2962 -2462" class="line silhouette" /></g></svg>
      </g>
    </g>
  </g>
</svg>